<?xml version="1.0" encoding="UTF-8" standalone="no"?><svg xmlns="http://www.w3.org/2000/svg" xmlns:xlink="http://www.w3.org/1999/xlink" contentScriptType="application/ecmascript" contentStyleType="text/css" height="631px" preserveAspectRatio="none" style="width:512px;height:631px;" version="1.1" viewBox="0 0 512 631" width="512px" zoomAndPan="magnify"><defs><filter height="300%" id="fxl69451q01qe" width="300%" x="-1" y="-1"><feGaussianBlur result="blurOut" stdDeviation="2.0"/><feColorMatrix in="blurOut" result="blurOut2" type="matrix" values="0 0 0 0 0 0 0 0 0 0 0 0 0 0 0 0 0 0 .4 0"/><feOffset dx="4.0" dy="4.0" in="blurOut2" result="blurOut3"/><feBlend in="SourceGraphic" in2="blurOut3" mode="normal"/></filter></defs><g><!--cluster VotingBooths--><polygon fill="#FFFFFF" filter="url(#fxl69451q01qe)" points="14,114,115,114,122,139.0679,285,139.0679,285,191,14,191,14,114" style="stroke: #000000; stroke-width: 1.5;"/><line style="stroke: #000000; stroke-width: 1.5;" x1="14" x2="122" y1="139.0679" y2="139.0679"/><text fill="#000000" font-family="sans-serif" font-size="14" font-weight="bold" lengthAdjust="spacingAndGlyphs" textLength="95" x="18" y="130.9659">VotingBooths</text><!--cluster Counting votes--><polygon fill="#FFFFFF" filter="url(#fxl69451q01qe)" points="32,368,42,358,214,358,214,430,204,440,32,440,32,368" style="stroke: #000000; stroke-width: 1.5;"/><line style="stroke: #000000; stroke-width: 1.5;" x1="204" x2="213" y1="368" y2="359"/><line style="stroke: #000000; stroke-width: 1.5;" x1="32" x2="204" y1="368" y2="368"/><line style="stroke: #000000; stroke-width: 1.5;" x1="204" x2="204" y1="368" y2="440"/><text fill="#000000" font-family="sans-serif" font-size="14" font-weight="bold" lengthAdjust="spacingAndGlyphs" textLength="106" x="66" y="385.9659">Counting votes</text><!--cluster db--><path d="M258,499 C258,489 371.5,489 371.5,489 C371.5,489 485,489 485,499 L485,609 C485,619 371.5,619 371.5,619 C371.5,619 258,619 258,609 L258,499 " fill="#FFFFFF" filter="url(#fxl69451q01qe)" style="stroke: #000000; stroke-width: 1.5;"/><path d="M258,499 C258,509 371.5,509 371.5,509 C371.5,509 485,509 485,499 " fill="none" style="stroke: #000000; stroke-width: 1.5;"/><text fill="#000000" font-family="sans-serif" font-size="14" font-weight="bold" lengthAdjust="spacingAndGlyphs" textLength="111" x="316" y="525.9659">Gathering votes</text><!--cluster Something to gather votes--><polygon fill="#FFFFFF" filter="url(#fxl69451q01qe)" points="274,534,467,534,474,559.0679,477,559.0679,477,611,274,611,274,534" style="stroke: #000000; stroke-width: 1.5;"/><line style="stroke: #000000; stroke-width: 1.5;" x1="274" x2="474" y1="559.0679" y2="559.0679"/><text fill="#000000" font-family="sans-serif" font-size="14" font-weight="bold" lengthAdjust="spacingAndGlyphs" textLength="187" x="278" y="550.9659">Something to gather votes</text><!--cluster Checking votes--><polygon fill="#FFFFFF" filter="url(#fxl69451q01qe)" points="322,114,434,114,441,139.0679,444,139.0679,444,191,322,191,322,114" style="stroke: #000000; stroke-width: 1.5;"/><line style="stroke: #000000; stroke-width: 1.5;" x1="322" x2="441" y1="139.0679" y2="139.0679"/><text fill="#000000" font-family="sans-serif" font-size="14" font-weight="bold" lengthAdjust="spacingAndGlyphs" textLength="106" x="326" y="130.9659">Checking votes</text><!--entity VotingBooth1--><rect fill="#FEFECE" filter="url(#fxl69451q01qe)" height="39.0679" style="stroke: #A80036; stroke-width: 1.5;" width="110" x="22" y="144"/><rect fill="#FEFECE" height="5" style="stroke: #A80036; stroke-width: 1.5;" width="10" x="17" y="149"/><rect fill="#FEFECE" height="5" style="stroke: #A80036; stroke-width: 1.5;" width="10" x="17" y="173.0679"/><text fill="#000000" font-family="sans-serif" font-size="14" lengthAdjust="spacingAndGlyphs" textLength="90" x="32" y="168.9659">VotingBooth1</text><!--entity VotingBooth2--><rect fill="#FEFECE" filter="url(#fxl69451q01qe)" height="39.0679" style="stroke: #A80036; stroke-width: 1.5;" width="110" x="167" y="144"/><rect fill="#FEFECE" height="5" style="stroke: #A80036; stroke-width: 1.5;" width="10" x="162" y="149"/><rect fill="#FEFECE" height="5" style="stroke: #A80036; stroke-width: 1.5;" width="10" x="162" y="173.0679"/><text fill="#000000" font-family="sans-serif" font-size="14" lengthAdjust="spacingAndGlyphs" textLength="90" x="177" y="168.9659">VotingBooth2</text><!--entity VoteCounter--><rect fill="#FEFECE" filter="url(#fxl69451q01qe)" height="39.0679" style="stroke: #A80036; stroke-width: 1.5;" width="103" x="81.5" y="393"/><rect fill="#FEFECE" height="5" style="stroke: #A80036; stroke-width: 1.5;" width="10" x="76.5" y="398"/><rect fill="#FEFECE" height="5" style="stroke: #A80036; stroke-width: 1.5;" width="10" x="76.5" y="422.0679"/><text fill="#000000" font-family="sans-serif" font-size="14" lengthAdjust="spacingAndGlyphs" textLength="83" x="91.5" y="417.9659">VoteCounter</text><!--entity Folder--><rect fill="#FEFECE" filter="url(#fxl69451q01qe)" height="39.0679" style="stroke: #A80036; stroke-width: 1.5;" width="62" x="354" y="564"/><rect fill="#FEFECE" height="5" style="stroke: #A80036; stroke-width: 1.5;" width="10" x="349" y="569"/><rect fill="#FEFECE" height="5" style="stroke: #A80036; stroke-width: 1.5;" width="10" x="349" y="593.0679"/><text fill="#000000" font-family="sans-serif" font-size="14" lengthAdjust="spacingAndGlyphs" textLength="42" x="364" y="588.9659">Folder</text><!--entity VoteChecker--><rect fill="#FEFECE" filter="url(#fxl69451q01qe)" height="39.0679" style="stroke: #A80036; stroke-width: 1.5;" width="103" x="331.5" y="144"/><rect fill="#FEFECE" height="5" style="stroke: #A80036; stroke-width: 1.5;" width="10" x="326.5" y="149"/><rect fill="#FEFECE" height="5" style="stroke: #A80036; stroke-width: 1.5;" width="10" x="326.5" y="173.0679"/><text fill="#000000" font-family="sans-serif" font-size="14" lengthAdjust="spacingAndGlyphs" textLength="83" x="341.5" y="168.9659">VoteChecker</text><!--entity person_A--><rect fill="#FEFECE" filter="url(#fxl69451q01qe)" height="49.0679" style="stroke: #000000; stroke-width: 1.5;" width="99" x="65.5" y="8"/><path d="M98.5,9 L98.5,13 L91.5,20 L65.5,20 " fill="none" style="stroke: #000000; stroke-width: 1.5;"/><text fill="#000000" font-family="sans-serif" font-size="14" lengthAdjust="spacingAndGlyphs" textLength="59" x="80.5" y="42.9659">Person A</text><!--entity person_B--><rect fill="#FEFECE" filter="url(#fxl69451q01qe)" height="49.0679" style="stroke: #000000; stroke-width: 1.5;" width="99" x="295.5" y="8"/><path d="M328.5,9 L328.5,13 L321.5,20 L295.5,20 " fill="none" style="stroke: #000000; stroke-width: 1.5;"/><text fill="#000000" font-family="sans-serif" font-size="14" lengthAdjust="spacingAndGlyphs" textLength="59" x="310.5" y="42.9659">Person B</text><!--entity VotesGatherer--><rect fill="#FEFECE" filter="url(#fxl69451q01qe)" height="39.0679" style="stroke: #A80036; stroke-width: 1.5;" width="116" x="124" y="262"/><rect fill="#FEFECE" height="5" style="stroke: #A80036; stroke-width: 1.5;" width="10" x="119" y="267"/><rect fill="#FEFECE" height="5" style="stroke: #A80036; stroke-width: 1.5;" width="10" x="119" y="291.0679"/><text fill="#000000" font-family="sans-serif" font-size="14" lengthAdjust="spacingAndGlyphs" textLength="96" x="134" y="286.9659">VotesGatherer</text><!--link person_A to VotingBooth1--><path d="M91.1942,57.1222 C84.2686,65.86 77.6024,76.2193 74,87 C68.4367,103.6492 69.4121,123.4804 71.6602,138.7792 " fill="none" id="person_A-&gt;VotingBooth1" style="stroke: #A80036; stroke-width: 1.0;"/><polygon fill="#A80036" points="72.4638,143.7826,74.986,134.2622,71.6709,138.8459,67.0873,135.5308,72.4638,143.7826" style="stroke: #A80036; stroke-width: 1.0;"/><text fill="#000000" font-family="sans-serif" font-size="13" lengthAdjust="spacingAndGlyphs" textLength="34" x="75" y="101.897">Votes</text><!--link person_B to VotingBooth2--><path d="M321.8646,57.1401 C299.6295,80.8214 266.2546,116.367 244.3029,139.7465 " fill="none" id="person_B-&gt;VotingBooth2" style="stroke: #A80036; stroke-width: 1.0;"/><polygon fill="#A80036" points="240.6122,143.6773,249.6888,139.8542,244.0347,140.0322,243.8566,134.3782,240.6122,143.6773" style="stroke: #A80036; stroke-width: 1.0;"/><text fill="#000000" font-family="sans-serif" font-size="13" lengthAdjust="spacingAndGlyphs" textLength="34" x="291" y="101.897">Votes</text><!--link person_A to VoteChecker--><path d="M121.1598,57.0142 C126.7648,73.8246 136.8545,95.0048 154,106 C180.0447,122.7021 263.2664,105.4446 293,114 C313.3637,119.8593 334.2139,130.9443 350.7115,141.1412 " fill="none" id="person_A-&gt;VoteChecker" style="stroke: #A80036; stroke-width: 1.0;"/><polygon fill="#A80036" points="355.2452,143.9886,349.7512,135.8145,351.0111,141.3293,345.4963,142.5891,355.2452,143.9886" style="stroke: #A80036; stroke-width: 1.0;"/><text fill="#000000" font-family="sans-serif" font-size="13" lengthAdjust="spacingAndGlyphs" textLength="112" x="155" y="101.897">Checks vote online</text><!--link person_B to VoteChecker--><path d="M352.1475,57.1401 C358.9317,80.5278 369.0727,115.4876 375.8558,138.8715 " fill="none" id="person_B-&gt;VoteChecker" style="stroke: #A80036; stroke-width: 1.0;"/><polygon fill="#A80036" points="377.2499,143.6773,378.5841,133.9192,375.8569,138.8753,370.9009,136.148,377.2499,143.6773" style="stroke: #A80036; stroke-width: 1.0;"/><text fill="#000000" font-family="sans-serif" font-size="13" lengthAdjust="spacingAndGlyphs" textLength="112" x="367" y="101.897">Checks vote online</text><!--link VotingBooth1 to VotesGatherer--><path d="M58.1711,183.1617 C46.8286,197.463 36.4437,216.8858 47,232 C55.9211,244.7729 88.2376,256.8582 119.014,265.8898 " fill="none" id="VotingBooth1-&gt;VotesGatherer" style="stroke: #A80036; stroke-width: 1.0;"/><polygon fill="#A80036" points="123.9364,267.3127,116.4013,260.9706,119.1331,265.9241,114.1796,268.6559,123.9364,267.3127" style="stroke: #A80036; stroke-width: 1.0;"/><text fill="#000000" font-family="sans-serif" font-size="13" lengthAdjust="spacingAndGlyphs" textLength="142" x="48" y="227.897">Pass results every 1 min</text><!--link VotingBooth2 to VotesGatherer--><path d="M215.3049,183.2505 C208.4403,203.5011 197.7486,235.0417 190.3388,256.9006 " fill="none" id="VotingBooth2-&gt;VotesGatherer" style="stroke: #A80036; stroke-width: 1.0;"/><polygon fill="#A80036" points="188.7169,261.685,195.3946,254.4456,190.3221,256.9497,187.8181,251.8772,188.7169,261.685" style="stroke: #A80036; stroke-width: 1.0;"/><text fill="#000000" font-family="sans-serif" font-size="13" lengthAdjust="spacingAndGlyphs" textLength="142" x="205" y="227.897">Pass results every 1 min</text><!--link VotesGatherer to VoteCounter--><path d="M165.7122,301.0945 C159.2741,309.7717 152.3806,320.4013 148,331 C140.5446,349.0379 136.7785,370.8459 134.8852,387.3624 " fill="none" id="VotesGatherer-&gt;VoteCounter" style="stroke: #A80036; stroke-width: 1.0;"/><polygon fill="#A80036" points="134.3123,392.7477,139.242,384.2214,134.8413,387.7758,131.2869,383.375,134.3123,392.7477" style="stroke: #A80036; stroke-width: 1.0;"/><text fill="#000000" font-family="sans-serif" font-size="13" lengthAdjust="spacingAndGlyphs" textLength="90" x="149" y="345.897">Voting finished</text><!--link VotesGatherer to db--><path d="M216.4125,301.196 C227.0437,309.0602 237.6239,319.1027 244,331 C256.887,355.0462 262.4514,415.039 264.7633,470.5134 C264.9078,473.9805 265.0396,477.43 265.1597,480.852 C265.2197,482.563 265.2769,484.2671 265.3312,485.9631 C265.3583,486.8111 265.3848,487.657 265.4105,488.5008 " fill="none" id="VotesGatherer-&gt;db" style="stroke: #A80036; stroke-width: 1.0;"/><polygon fill="#A80036" points="265.4105,488.5008,269.1339,479.3829,265.2579,483.5032,261.1377,479.6271,265.4105,488.5008" style="stroke: #A80036; stroke-width: 1.0;"/><text fill="#000000" font-family="sans-serif" font-size="13" lengthAdjust="spacingAndGlyphs" textLength="68" x="263" y="417.897">Store votes</text><!--link VoteChecker to db--><path d="M384.5253,183.1366 C387.2972,230.6826 388.927,354.3744 340,440 C325.7423,464.9519 314.742,466.3812 290,481 C285.8788,483.435 282.2622,483.4819 278.9842,483.8966 C277.3452,484.104 275.7909,484.4033 274.3004,485.139 C273.5552,485.5069 272.826,485.9839 272.1101,486.613 C271.7521,486.9276 271.3976,487.2802 271.046,487.6762 C270.8702,487.8743 270.6952,488.0831 270.5208,488.3035 C270.4337,488.4137 270.3467,488.5268 270.2599,488.6429 C270.2165,488.7009 270.1731,488.7597 270.1298,488.8192 C270.1082,488.8489 270.0865,488.8789 270.0649,488.909 " fill="none" id="VoteChecker-&gt;db" style="stroke: #A80036; stroke-width: 1.0;"/><polygon fill="#A80036" points="270.0649,488.909,278.5631,483.931,272.981,484.8474,272.0645,479.2653,270.0649,488.909" style="stroke: #A80036; stroke-width: 1.0;"/><text fill="#000000" font-family="sans-serif" font-size="13" lengthAdjust="spacingAndGlyphs" textLength="123" x="377" y="345.897">Check if vote is there</text><!--link VoteCounter to db--><path d="M122.4001,432.0625 C116.2058,446.3145 111.0262,465.7191 119,481 C136.5598,514.6511 170.7683,539.5075 201.7692,556.309 C217.2697,564.7098 231.9683,571.0968 243.3829,575.5627 C249.0902,577.7956 253.9765,579.5482 257.7316,580.8321 " fill="none" id="VoteCounter-&gt;db" style="stroke: #A80036; stroke-width: 1.0;"/><polygon fill="#A80036" points="257.7316,580.8321,250.5097,574.1356,253.0005,579.2145,247.9215,581.7053,257.7316,580.8321" style="stroke: #A80036; stroke-width: 1.0;"/><text fill="#000000" font-family="sans-serif" font-size="13" lengthAdjust="spacingAndGlyphs" textLength="119" x="120" y="476.897">Count once finished</text><!--
@startuml

frame "Person A" as person_A
frame "Person B" as person_B

package "VotingBooths" {
  component [VotingBooth1] as VotingBooth1
  component [VotingBooth2] as VotingBooth2
}

node "Counting votes" {
  component [VoteCounter] as VoteCounter
}

component [VotesGatherer] as VotesGatherer

database  "Gathering votes" as db {
 folder "Something to gather votes" {
   [Folder]
 }
}

package "Checking votes" {
  component [VoteChecker] as VoteChecker
}


person_A - -> VotingBooth1 : "Votes"
person_B - -> VotingBooth2 : "Votes"

person_A - -> VoteChecker : "Checks vote online"
person_B - -> VoteChecker : "Checks vote online"

VotingBooth1 - -> VotesGatherer : "Pass results every 1 min"
VotingBooth2 - -> VotesGatherer : "Pass results every 1 min"

VotesGatherer - -> VoteCounter : "Voting finished"

VotesGatherer - -> db : "Store votes"

VoteChecker - -> db : "Check if vote is there"

VoteCounter - -> db : "Count once finished"







@enduml

PlantUML version 1.2019.09(Mon Aug 26 18:19:51 CEST 2019)
(GPL source distribution)
Java Runtime: OpenJDK Runtime Environment
JVM: OpenJDK 64-Bit Server VM
Java Version: 13+33-Ubuntu-1
Operating System: Linux
OS Version: 5.3.0-46-generic
Default Encoding: UTF-8
Language: en
Country: US
--></g></svg>